<svg width="89" height="30" viewBox="0 0 89 30" fill="none" xmlns="http://www.w3.org/2000/svg">
<g opacity="0.6">
<path fill-rule="evenodd" clip-rule="evenodd" d="M26.2066 21.8158C25.9637 22.1687 26.0095 22.2239 25.0652 22.22C23.7698 22.2144 21.7648 22.3843 20.9879 21.8973C18.0847 20.0774 17.3069 8.60585 5.91954 7.20906C4.93817 7.0887 4.04479 7.08525 3.05738 7.08525C1.77059 7.08482 1.0929 6.68278 1.08945 7.88718C1.08514 9.49145 0.953569 12.2139 1.14078 13.6922C1.85988 13.9199 4.01503 13.6922 5.11158 13.8777C8.13206 14.3893 10.273 16.7998 11.5688 19.6693C13.1338 23.1354 14.9202 28.3533 18.7421 28.8562C20.2718 29.0573 25.3094 29.0111 26.9274 28.8757C29.1231 28.6919 30.9487 27.5639 32.1156 25.885C33.3575 24.0991 33.9278 21.7968 33.0042 19.3686C31.9154 16.506 29.9 15.4384 30.1179 14.0968C31.2153 13.3346 37.971 13.7715 39.9398 13.7422L39.9528 28.8261C40.6576 29.1125 46.1154 29.0629 47.051 28.8843L47.0536 13.7504L53.1929 13.7258C53.4276 13.027 53.425 7.81471 53.1972 7.08828L47.0566 7.06498L47.0005 0.79108C46.149 0.616805 44.4145 0.721198 43.4633 0.721198C42.9409 0.721198 40.2698 0.585318 40.027 0.896338C39.7556 1.5132 39.951 5.97921 39.9325 7.0887C36.9444 7.05635 33.9437 7.09043 30.9534 7.08482C28.1422 7.08008 25.7977 7.87553 24.5937 9.45393C19.6364 15.9517 27.0008 20.4078 26.2075 21.8158H26.2066Z" fill="#CCCCCC"/>
<path fill-rule="evenodd" clip-rule="evenodd" d="M77.0017 14.0562C79.3941 13.605 81.3025 15.1769 81.6942 17.1276C82.7735 22.5056 74.8229 23.8407 73.8605 18.7379C73.4045 16.3201 75.0886 14.4173 77.0022 14.0562H77.0017ZM76.1687 6.87732C70.4901 7.77199 65.6497 12.8816 66.7139 19.7258C67.5741 25.2569 72.8868 30.1348 79.5529 29.0577C85.1038 28.1609 89.8713 22.9766 88.8649 16.2722C88.0294 10.7058 82.7299 5.84288 76.1687 6.87688V6.87732Z" fill="#CCCCCC"/>
<path fill-rule="evenodd" clip-rule="evenodd" d="M53.8844 28.8485C54.5768 29.0776 60.2446 29.0776 60.9339 28.8472C61.1703 26.0226 60.9715 22.1924 60.9633 19.2638C60.9521 15.4065 61.5866 14.1952 65.2451 13.7254C65.447 13.1086 65.4444 7.75263 65.2507 7.10988C60.8641 6.78031 56.3476 8.52263 54.67 13.0667C53.7667 15.513 53.8521 17.908 53.8521 20.5575C53.8521 23.0754 53.6636 26.4324 53.8849 28.8481L53.8844 28.8485Z" fill="#CCCCCC"/>
<path fill-rule="evenodd" clip-rule="evenodd" d="M0.0740055 25.5903C0.9484 30.9428 9.44171 29.7082 8.40512 24.0132C7.4561 18.7979 -0.86682 19.8315 0.0740055 25.5903Z" fill="#CCCCCC"/>
</g>
</svg>
