<svg width="963" height="300" viewBox="0 0 963 300" fill="none" xmlns="http://www.w3.org/2000/svg">
<path fill-rule="evenodd" clip-rule="evenodd" d="M749.9 48.1167C761.761 41.3954 811.466 31.8335 828.682 31.2542C818.647 51.076 783.766 72.2378 752.455 75.2669C755.8 68.1827 764.173 56.0733 768.165 50.5176L749.9 48.1167ZM760.569 97.1128C785.483 108.05 780.033 120.487 822.837 91.1802C837.239 81.3181 863.004 57.1411 870.873 44.7665C866.445 30.7377 859.68 20.7291 851.886 11.5859C847.281 6.1838 845.761 1.2563 836.966 0.314064C830.862 -0.342009 819.417 0.160488 813.101 0.635094C724.829 7.30052 669.865 48.4028 564.343 53.0023C512.655 55.2497 510.522 45.4365 497.933 61.0008C479.797 83.426 466.669 117.486 456.907 146.109C443.281 186.06 444.065 234.239 423.906 268.125C415.172 282.795 410.717 285.301 401.867 295.421C413.121 299.037 429.704 300.007 443.663 300C486.215 299.979 559.438 282.125 589.754 261.473C590.735 234.469 591.798 218.57 597.582 193.465C602.31 172.959 609.191 154.638 613.83 135.109C584.018 142.047 539.749 141.733 531.928 145.976C517.056 154.052 499.329 178.752 500.106 203.69C519.944 194.449 539.538 180.078 564.779 175.29C556.501 193.241 550.166 204.981 550.206 229.367C526.852 243.703 501.884 245.839 472.542 246.6C477.488 233.318 483.953 222.388 489.458 206.349C498.103 181.146 519.304 101.419 535.716 91.7735C536.595 101.307 535.716 110.241 539.558 116.816C554.335 122.267 617.856 98.4668 633.757 92.6529C649.529 86.8878 662.752 81.6462 678.278 75.581C691.801 70.2975 707.893 62.2432 721.498 58.3137C718.746 65.1257 711.252 75.7974 706.435 84.7172C689.744 115.567 653.208 211.674 659.754 240.674C664.094 259.889 682.012 279.892 697.803 285.559C696.931 244.639 698.682 223.156 708.281 185.159C713.18 165.798 727.52 117.493 737.467 105.139C737.705 163.271 746.385 209.895 803.931 238.043C818.456 245.155 864.612 260.636 883.013 254.794C895.719 250.76 932.146 217.726 936.295 209.992C850.19 202.071 773.922 177.105 760.569 97.1267V97.1128Z" fill="#FDFDFD"/>
<path fill-rule="evenodd" clip-rule="evenodd" d="M156.113 98.0478C159.812 87.8507 170.154 71.77 176.006 60.6725C180.516 52.1157 194.863 29.1671 196.56 23.2833C186.075 11.3344 147.822 -5.48616 130.851 3.61511C128.303 20.5962 129.973 28.3784 125.272 46.4064C107.79 113.528 69.7483 180.162 23.1427 228.236L0 250.082C35.6167 254.821 82.0793 245.029 112.648 233.939C116.156 201.344 122.806 164.988 138.516 142.109C146.561 156.355 152.052 168.841 160.234 181.132C183.738 216.427 215.281 246.718 256.92 266.498C285.329 279.989 317.342 289.23 352.72 292.308C375.011 294.249 383.105 283.835 394.305 273.582C401.179 267.287 415.615 250.696 420.268 240.73C406.684 238.566 389.734 238.643 375.379 236.849C335.763 231.901 298.45 220.845 263.467 204.297C232.735 189.751 172.858 147.63 159.274 116.571C167.102 120.438 173.914 126.175 184.365 129.651C199.149 134.565 198.91 129.463 206.336 120.445C233.287 87.6972 308.697 46.7065 349.702 35.9581C349.327 35.665 348.81 35.3299 348.524 35.1694L339.197 31.568C335.396 30.6746 331.512 29.9906 327.806 29.4183C277.195 21.6292 262.718 33.7177 222.537 58.2576C206.901 67.8056 170.835 93.0923 156.099 98.0548L156.113 98.0478Z" fill="#FDFDFD"/>
<path fill-rule="evenodd" clip-rule="evenodd" d="M422.639 225.752C429.493 189.863 434.118 166.244 446.824 133.964C452.329 119.977 459.155 106.172 465.538 93.9996C472.542 80.6478 480.683 70.5205 486.705 59.6674C476.943 50.7127 462.166 41.4021 443.67 42.8817C435.76 46.7833 421.379 102.249 417.741 116.725C417.209 118.833 416.937 120.417 416.215 122.385L413.408 127.941C408.441 102.089 401.84 83.1604 389.815 60.5259C386.368 54.0349 382.029 48.3746 379.242 42.9375C363.471 45.8689 346.35 53.9512 336.043 63.4154C327.881 70.9184 327.479 71.4907 331.812 84.0747C352.761 144.845 306.135 186.206 307.436 204.15C317.948 211.995 346.725 218.06 361.509 218.647C372.559 199.662 374.848 112.049 365.76 92.3106C362.374 89.2954 358.17 87.6552 351.583 86.7758C369.745 84.2701 370.324 91.9546 376.265 104.832C381.238 115.608 384.365 126.803 386.45 139.304C391.641 170.453 387.799 191.768 385.442 221.934L422.639 225.738V225.752Z" fill="#FF0130"/>
<path fill-rule="evenodd" clip-rule="evenodd" d="M871.146 137.894C875.765 122.693 906.81 81.1785 920.674 66.0469C924.108 62.299 925.327 61.4544 929.66 59.3885C928.181 71.7911 918.078 97.7478 913.071 108.412C885.214 167.745 885.003 136.072 900.372 163.341C887.346 158.351 878.735 149.236 871.152 137.894H871.146ZM917.772 188.195C920.442 181.034 928.958 166.629 933.346 157.813C948.163 128.032 962.926 85.422 962.79 51.1945C951.556 41.9676 932.698 33.5434 912.206 34.3809C895.099 35.0789 895.521 36.3212 888.559 45.6947C883.708 52.2275 878.456 58.6975 873.687 64.4766C870.573 68.2385 868.373 70.0462 865.382 73.85C862.357 77.6957 860.559 80.1106 857.105 83.3003C845.55 93.9789 837.069 104.658 822.299 117.507C815.54 123.391 811.187 126.329 803.686 132.52C807.965 143.352 839.037 161.094 852.901 168.15C874.968 179.38 890.446 184.88 917.765 188.195H917.772Z" fill="#FDFDFD"/>
<path fill-rule="evenodd" clip-rule="evenodd" d="M274.483 157.528C276.793 165.205 278.578 167.152 283.919 171.305C270.975 167.027 266.826 157.653 258.344 150.932C261.083 142.152 279.79 117.5 286.112 110.807C290.718 105.935 294.315 104.874 298.041 101.084C298.975 119.489 283.258 147.365 274.49 157.534L274.483 157.528ZM290.254 73.7804C294.206 78.5195 294.662 77.1585 297.735 84.815C260.994 83.5517 271.99 81.765 235.542 116.293L211.309 146.856C217.549 159.691 264.38 195.803 293.327 195.594C304.432 182.933 317.376 146.793 321.634 127.809C324.659 114.338 328.951 97.1967 321.143 89.7565C314.882 83.7821 301.427 74.9809 290.248 73.7874L290.254 73.7804Z" fill="#FDFDFD"/>
<path fill-rule="evenodd" clip-rule="evenodd" d="M637.484 288.135C639.93 233.583 649.045 188.907 667.535 139.842C673.414 124.256 681.855 111.533 686.494 99.4791C668.468 105.132 648.268 117.549 635.937 127.104C626.447 134.453 626.345 138.285 621.44 151.672C613.633 172.98 599.449 226.667 603.073 246.844C606.548 266.191 622.455 282.44 637.491 288.128L637.484 288.135Z" fill="#FDFDFD"/>
</svg>
