<svg width="169" height="30" viewBox="0 0 169 30" fill="none" xmlns="http://www.w3.org/2000/svg">
<g opacity="0.6">
<path d="M9.82647 1.01075C-0.483109 4.24512 -3.44795 17.9912 4.63799 25.4707C13.263 33.4219 25.4593 29.5137 28.9632 17.6543C29.3675 16.2393 29.2327 16.1719 25.6614 16.1719C22.6292 16.1719 21.888 16.374 21.5511 17.5195C20.8099 19.9453 17.306 22.2363 14.3411 22.2363C12.1849 22.2363 11.1741 21.7647 9.35479 19.9453C7.46807 18.0586 7.06377 17.1153 7.06377 14.8242C7.06377 12.5332 7.46807 11.5899 9.35479 9.70314C11.1741 7.8838 12.1849 7.41212 14.3411 7.41212C17.306 7.41212 20.8099 9.70314 21.5511 12.1289C21.888 13.2744 22.6292 13.4766 25.5941 13.4766C28.222 13.4766 29.1654 13.207 29.0306 12.6006C28.8284 12.1963 28.5589 10.916 28.2894 9.90528C27.6155 6.67091 22.8314 2.15626 18.9905 1.01075C14.9476 -0.202145 13.7347 -0.202145 9.82647 1.01075Z" fill="#CCCCCC"/>
<path d="M77.4115 0.943384C76.0638 1.95413 76.4681 3.84085 78.2201 4.51468C79.5677 5.05374 81.3871 3.2344 80.848 1.88674C80.2416 0.336938 78.8265 -0.0673594 77.4115 0.943384Z" fill="#CCCCCC"/>
<path d="M101.4 11.4551V22.9102H103.084C104.162 22.9102 104.769 22.5059 104.769 21.8321C104.769 20.8887 104.904 20.8887 106.251 21.8321C108.745 23.584 112.518 23.1797 114.944 21.0235C116.763 19.4063 117.167 18.5303 117.437 15.4307C117.706 11.9268 117.572 11.5899 115.348 9.23149C113.461 7.21 112.585 6.73833 110.429 6.73833C108.947 6.73833 107.06 7.21 106.251 7.81645L104.769 8.82719V4.44731C104.769 0.134804 104.702 3.8147e-05 103.084 3.8147e-05H101.4V11.4551ZM113.124 11.5899C115.618 15.0938 113.461 19.7432 109.486 19.7432C105.51 19.7432 103.354 15.0938 105.847 11.5899C106.588 10.5118 107.532 10.1075 109.486 10.1075C111.44 10.1075 112.383 10.5118 113.124 11.5899Z" fill="#CCCCCC"/>
<path d="M43.0462 8.01855C36.5775 11.9941 39.3402 22.9102 46.887 22.9102C51.0648 22.9102 54.9056 20.3496 54.9056 17.5869C54.9056 16.3066 51.8734 16.7783 50.6605 18.1934C47.9652 21.3604 42.7767 19.1367 42.7767 14.8242C42.7767 10.5791 47.763 8.42284 50.5257 11.4551C51.806 12.8701 54.9056 13.3418 54.9056 12.0615C54.9056 7.8164 47.5609 5.25585 43.0462 8.01855Z" fill="#CCCCCC"/>
<path d="M60.8353 7.74901C55.6468 10.6465 55.7816 19.2041 60.9701 21.8994C62.0482 22.4385 64.1371 22.9102 65.6195 22.9102C72.5599 22.9102 75.9291 13.6113 70.808 8.82714C68.6517 6.80565 63.4632 6.26659 60.8353 7.74901ZM68.5169 11.2529C70.1341 12.668 70.1341 16.9805 68.5843 18.3281C66.6976 19.9453 65.4173 20.1475 63.1937 19.2041C59.9593 17.7891 59.555 12.668 62.5872 10.6465C63.9349 9.7705 67.2367 10.1074 68.5169 11.2529Z" fill="#CCCCCC"/>
<path d="M75.1205 7.34472C75.1205 7.68163 74.9183 8.42284 74.7162 9.02929C74.4466 9.83788 74.7162 10.1074 75.7269 10.1074C77.0746 10.1074 77.1419 10.4443 77.1419 16.5088C77.1419 22.9102 77.1419 22.9102 78.8265 22.9102H80.5111V14.8242V6.73827H77.8158C76.3333 6.73827 75.1205 7.0078 75.1205 7.34472Z" fill="#CCCCCC"/>
<path d="M83.8802 14.8242V22.9102H85.5648C87.2494 22.9102 87.2494 22.8428 87.2494 17.6543C87.2494 11.792 88.1927 10.1074 91.3597 10.1074C94.1224 10.1074 94.6615 11.3203 94.6615 17.3174C94.6615 22.8428 94.6615 22.9102 96.3461 22.9102C98.0306 22.9102 98.0306 22.9102 98.0306 16.5088C98.0306 10.5791 97.8959 9.90526 96.3461 8.42284C94.4593 6.46874 91.0228 6.19921 88.7318 7.8164C87.3841 8.75976 87.2494 8.75976 87.2494 7.8164C87.2494 7.14257 86.6429 6.73827 85.5648 6.73827H83.8802V14.8242Z" fill="#CCCCCC"/>
<path d="M121.952 8.42284C121.008 9.29882 120.267 10.3769 120.267 10.7812C120.267 11.792 123.367 11.5898 124.31 10.4443C125.86 8.55761 130.307 9.63573 129.498 11.7246C129.296 12.2637 128.286 12.9375 127.342 13.1396C126.399 13.3418 124.916 13.6113 123.973 13.8135C119.997 14.6894 118.313 18.9346 120.941 21.5625C122.558 23.1797 126.736 23.3818 128.825 21.8994C130.037 21.0234 130.307 21.0234 131.048 21.8994C131.52 22.4385 132.598 22.9102 133.474 22.9102C134.754 22.9102 135.091 22.5732 135.091 21.2256C135.091 20.1475 134.687 19.541 134.08 19.541C133.272 19.541 133.07 18.5303 133.07 14.5547C133.07 9.90526 132.935 9.43359 131.318 8.15331C128.69 6.06444 124.108 6.19921 121.952 8.42284ZM128.622 18.9346C127.005 20.6865 123.299 20.4844 123.299 18.5977C123.299 17.25 124.04 16.7109 127.342 15.7002C129.027 15.2285 129.431 15.2959 129.566 16.374C129.701 17.0478 129.296 18.1934 128.622 18.9346Z" fill="#CCCCCC"/>
<path d="M139.471 7.54688C137.652 8.55763 137.113 9.4336 137.113 11.5899C137.113 13.8809 139.943 16.1719 142.773 16.1719C145.468 16.1719 146.748 17.0479 146.412 18.5977C146.142 20.2822 141.762 20.7539 140.482 19.2715C140.01 18.6651 138.932 18.1934 138.056 18.1934C136.641 18.1934 136.506 18.3281 137.247 19.8106C138.191 22.0342 141.223 23.1797 144.862 22.7754C149.039 22.3037 150.05 21.293 149.781 17.9238C149.579 14.8916 148.433 14.083 143.514 13.0049C141.425 12.6006 140.819 12.1289 140.819 11.1182C140.819 9.36622 144.525 8.82716 145.872 10.377C146.816 11.5899 149.915 11.8594 149.915 10.7813C149.915 10.377 149.174 9.29884 148.231 8.42286C146.412 6.53614 141.964 6.13184 139.471 7.54688Z" fill="#CCCCCC"/>
<path d="M154.834 8.96198C152.746 10.9161 152.409 11.6573 152.341 14.2852C152.274 15.9698 152.678 18.0587 153.15 19.002C155.373 23.1124 161.707 24.1905 165.346 21.1583C167.907 19.0694 168.041 17.5196 165.75 17.5196C164.807 17.5196 164.066 17.8565 164.066 18.1934C164.066 19.2042 160.764 20.3497 159.282 19.878C157.597 19.3389 155.98 17.6544 155.98 16.4415C155.98 15.7003 157.26 15.4981 162.044 15.4981C167.907 15.4981 168.109 15.4307 168.109 13.9483C168.109 11.7921 165.683 8.15339 163.662 7.41218C160.292 6.06452 157.462 6.60358 154.834 8.96198ZM162.583 10.5118C165.346 12.4659 164.47 13.4766 160.023 13.4766C155.845 13.4766 155.373 13.1397 156.856 11.3204C158.406 9.2989 160.495 9.02937 162.583 10.5118Z" fill="#CCCCCC"/>
</g>
</svg>
