<svg width="113" height="36" viewBox="0 0 113 36" fill="none" xmlns="http://www.w3.org/2000/svg">
<g opacity="0.6">
<path fill-rule="evenodd" clip-rule="evenodd" d="M72.202 19.8221C70.522 27.8285 59.3851 24.9235 61.2292 17.0102C62.9496 9.63073 73.907 11.6986 72.202 19.8221ZM61.1947 12.3994L61.1332 10.0061L57.9816 10.008L57.8376 35.5555L61.2436 35.5575L61.2513 24.6595C62.675 25.6771 65.3448 29.0218 70.7188 26.832C79.9387 23.0755 76.0382 7.01858 65.2161 9.80546C63.0283 10.369 62.3083 11.4912 61.1947 12.3984V12.3994Z" fill="#CCCCCC"/>
<path fill-rule="evenodd" clip-rule="evenodd" d="M3.58124 16.943C4.5566 11.1648 13.1352 10.6416 13.548 16.9853L3.58124 16.943ZM16.2369 23.9818C15.324 22.9402 15.0043 22.9392 14.1057 22.1482C12.5409 23.1946 11.316 25.0829 7.86188 24.4416C5.40812 23.9866 3.88652 22.1443 3.57932 19.4371L16.8993 19.3862C18.706 7.84608 3.29611 6.29568 0.510189 15.5213C-2.82293 26.5565 11.0712 31.3882 16.2379 23.9818H16.2369Z" fill="#CCCCCC"/>
<path fill-rule="evenodd" clip-rule="evenodd" d="M98.5838 16.9631C99.5515 11.3327 107.665 10.3507 108.588 16.9862L98.5838 16.9631ZM111.235 23.8166C110.28 22.8547 110.07 23.1292 109.236 22.0847C107.444 23.0284 106.592 25.1635 102.925 24.4464C100.274 23.928 98.9409 22.223 98.5732 19.4064L111.903 19.3814C113.593 7.6262 98.2017 6.54043 95.4984 15.4732C93.971 20.5199 96.3259 24.9024 99.8356 26.5756C103.972 28.5475 109.879 26.9721 111.234 23.8166H111.235Z" fill="#CCCCCC"/>
<path fill-rule="evenodd" clip-rule="evenodd" d="M80.5262 22.296C79.8715 23.5949 79.4692 23.2426 78.6561 24.3015C79.4049 25.6675 80.6203 26.3827 82.2014 26.9328C89.4619 29.4634 94.1141 23.761 91.5595 19.8115C89.6136 16.8029 84.5697 17.377 83.1 15.7709C81.2069 13.7021 85.2369 10.224 89.627 14.3837L91.9272 12.4618C90.7531 10.1328 86.3947 8.76578 82.7611 10.0781C79.7736 11.1571 77.9313 15.3034 80.7518 17.8176C82.9781 19.8019 88.86 19.3363 88.7265 22.3661C88.6497 24.1095 86.771 24.6883 84.8856 24.5242C82.6027 24.3264 81.9854 22.9959 80.5272 22.2951L80.5262 22.296Z" fill="#CCCCCC"/>
<path fill-rule="evenodd" clip-rule="evenodd" d="M35.8574 24.6221C34.9598 23.593 34.714 23.496 33.9268 22.799C32.3524 23.7235 30.6936 25.4285 27.658 24.2055C25.7179 23.424 24.276 21.3274 24.1723 18.8074C23.9956 14.5382 27.2673 11.76 30.9153 12.6067C32.2161 12.9082 32.7028 13.7175 33.6264 14.2455C34.4808 13.5053 34.9003 13.463 35.8612 12.4618C33.2942 7.33824 20.5329 8.62464 20.5492 18.5338C20.5665 28.9286 33.9556 29.2675 35.8574 24.6211V24.6221Z" fill="#CCCCCC"/>
<path fill-rule="evenodd" clip-rule="evenodd" d="M39.3988 26.999L42.6888 26.9904L42.8193 0.099832L39.4094 0L39.3988 26.999Z" fill="#CCCCCC"/>
<path fill-rule="evenodd" clip-rule="evenodd" d="M48.4852 26.9434L51.7137 27.0154C52.1313 25.5936 52.1236 11.6256 51.7435 10.0618L48.563 10.08L48.4852 26.9434Z" fill="#CCCCCC"/>
<path fill-rule="evenodd" clip-rule="evenodd" d="M48.9758 2.13595C46.4529 3.75547 48.9768 7.35163 51.5323 5.72251C53.8209 4.26331 51.6542 0.415632 48.9758 2.13595Z" fill="#CCCCCC"/>
</g>
</svg>
