<svg width="25" height="26" viewBox="0 0 25 26" fill="none" xmlns="http://www.w3.org/2000/svg">
<path fill-rule="evenodd" clip-rule="evenodd" d="M12.5 19.9643C16.1983 19.9643 19.1964 16.8463 19.1964 13.0001C19.1964 9.15378 16.1983 6.03577 12.5 6.03577C8.80165 6.03577 5.80356 9.15378 5.80356 13.0001C5.80356 16.8463 8.80165 19.9643 12.5 19.9643ZM12.5 17.6429C14.9655 17.6429 16.9643 15.5642 16.9643 13.0001C16.9643 10.4359 14.9655 8.3572 12.5 8.3572C10.0344 8.3572 8.0357 10.4359 8.0357 13.0001C8.0357 15.5642 10.0344 17.6429 12.5 17.6429Z" fill="white"/>
<path d="M19.4196 4.64282C18.8032 4.64282 18.3036 5.1625 18.3036 5.80354C18.3036 6.44458 18.8032 6.96425 19.4196 6.96425C20.036 6.96425 20.5357 6.44458 20.5357 5.80354C20.5357 5.1625 20.036 4.64282 19.4196 4.64282Z" fill="white"/>
<path fill-rule="evenodd" clip-rule="evenodd" d="M0.743136 3.87171C0 5.38854 0 7.37418 0 11.3455V14.6545C0 18.6258 0 20.6115 0.743136 22.1282C1.39682 23.4625 2.43986 24.5473 3.7228 25.2271C5.18128 26 7.09056 26 10.9091 26H14.0909C17.9094 26 19.8188 26 21.2772 25.2271C22.5601 24.5473 23.6032 23.4625 24.2568 22.1282C25 20.6115 25 18.6258 25 14.6545V11.3455C25 7.37418 25 5.38854 24.2568 3.87171C23.6032 2.53746 22.5601 1.45269 21.2772 0.772862C19.8188 0 17.9094 0 14.0909 0H10.9091C7.09056 0 5.18128 0 3.7228 0.772862C2.43986 1.45269 1.39682 2.53746 0.743136 3.87171ZM14.0909 2.36364H10.9091C8.96232 2.36364 7.63892 2.36548 6.616 2.45239C5.61959 2.53706 5.11005 2.69052 4.75459 2.87887C3.89931 3.3321 3.20394 4.05528 2.76815 4.94477C2.58703 5.31445 2.43948 5.84437 2.35807 6.88064C2.2745 7.94448 2.27273 9.32081 2.27273 11.3455V14.6545C2.27273 16.6792 2.2745 18.0555 2.35807 19.1193C2.43948 20.1557 2.58703 20.6856 2.76815 21.0553C3.20394 21.9447 3.89931 22.6679 4.75459 23.1211C5.11005 23.3095 5.61959 23.463 6.616 23.5476C7.63892 23.6345 8.96232 23.6364 10.9091 23.6364H14.0909C16.0377 23.6364 17.361 23.6345 18.384 23.5476C19.3805 23.463 19.89 23.3095 20.2455 23.1211C21.1007 22.6679 21.796 21.9447 22.2318 21.0553C22.413 20.6856 22.5606 20.1557 22.6419 19.1193C22.7255 18.0555 22.7273 16.6792 22.7273 14.6545V11.3455C22.7273 9.32081 22.7255 7.94448 22.6419 6.88064C22.5606 5.84437 22.413 5.31445 22.2318 4.94477C21.796 4.05528 21.1007 3.3321 20.2455 2.87887C19.89 2.69052 19.3805 2.53706 18.384 2.45239C17.361 2.36548 16.0377 2.36364 14.0909 2.36364Z" fill="white"/>
</svg>
