<svg width="26" height="26" viewBox="0 0 26 26" fill="none" xmlns="http://www.w3.org/2000/svg">
<path d="M18.6875 0H7.3125C3.25 0 0 3.25 0 7.3125V18.6875C0 22.75 3.25 26 7.3125 26H18.6875C22.75 26 26 22.75 26 18.6875V7.3125C26 3.25 22.75 0 18.6875 0ZM9.75 20.3125C9.75 20.8 9.425 21.125 8.9375 21.125H5.6875C5.2 21.125 4.875 20.8 4.875 20.3125V10.5625C4.875 10.075 5.2 9.75 5.6875 9.75H8.9375C9.425 9.75 9.75 10.075 9.75 10.5625V20.3125ZM7.3125 8.9375C5.93125 8.9375 4.875 7.88125 4.875 6.5C4.875 5.11875 5.93125 4.0625 7.3125 4.0625C8.69375 4.0625 9.75 5.11875 9.75 6.5C9.75 7.88125 8.69375 8.9375 7.3125 8.9375ZM21.125 20.3125C21.125 20.8 20.8 21.125 20.3125 21.125H17.875C17.3875 21.125 17.0625 20.8 17.0625 20.3125V17.4688V16.6562V15.0312C17.0625 14.3813 16.4937 13.8125 15.8438 13.8125C15.1938 13.8125 14.625 14.3813 14.625 15.0312V16.6562V17.4688V20.3125C14.625 20.8 14.3 21.125 13.8125 21.125H11.375C10.8875 21.125 10.5625 20.8 10.5625 20.3125V10.5625C10.5625 10.075 10.8875 9.75 11.375 9.75H14.625C14.8687 9.75 15.0313 9.83125 15.1938 9.99375C15.6813 9.83125 16.1688 9.75 16.6562 9.75C19.0938 9.75 21.125 11.7812 21.125 14.2188V20.3125Z" fill="white"/>
</svg>
