<svg width="156" height="42" viewBox="0 0 156 42" fill="none" xmlns="http://www.w3.org/2000/svg">
<g opacity="0.6">
<path fill-rule="evenodd" clip-rule="evenodd" d="M61.6464 31.0619H65.6733V16.1062C69.4493 20.4508 73.1362 23.4141 76.516 27.6968C79.6718 31.6952 79.7393 31.0619 84.6552 31.0619V10.9296H80.0535V24.7341C74.8101 21.223 68.6617 10.9296 65.6733 10.9296H61.6464V31.0619Z" fill="#CCCCCC"/>
<path fill-rule="evenodd" clip-rule="evenodd" d="M96.159 28.761C93.8268 28.761 93.1796 28.2285 92.7077 26.4601C94.8945 23.4759 100.394 25.7156 103.636 24.1599C103.315 28.0297 100.138 28.761 96.159 28.761ZM101.075 30.487L103.636 28.5267C105.353 31.2801 102.558 30.6941 107.681 30.7338L107.25 21.8583L107.747 19.5693C105.721 18.2569 106.049 17.5951 103.553 16.7651C100.057 15.6022 95.3846 15.6981 91.9173 17.6174C90.1065 18.619 88.8817 19.449 88.6815 21.859H93.2832C94.3002 18.0497 102.514 17.6542 103.636 21.859C95.7982 21.859 92.8564 22.1294 88.1059 25.3104V28.7617C90.0592 30.0692 90.7321 31.3615 93.8637 31.6479C96.8743 31.9231 99.392 31.579 101.075 30.4877V30.487Z" fill="#CCCCCC"/>
<path fill-rule="evenodd" clip-rule="evenodd" d="M146.777 28.1855C142.029 28.1855 139.299 28.2133 139.299 23.0081C139.299 18.5551 151.379 17.8169 151.379 23.5837C151.379 26.3656 149.56 28.1855 146.777 28.1855ZM134.698 23.5837C134.698 34.5786 155.98 34.2338 155.98 23.5837C155.98 13.6899 134.698 13.5008 134.698 23.5837Z" fill="#CCCCCC"/>
<path fill-rule="evenodd" clip-rule="evenodd" d="M118.853 17.2566L115.793 19.8292L115.141 17.0619L112.268 17.0737L112.247 30.7268L115.666 30.6844C115.62 28.9994 115.506 26.9383 115.609 25.2798C115.84 21.5997 116.705 21.8806 116.867 21.6533C119.197 19.2398 128.793 16.0957 127.495 28.4878C127.178 31.5102 128.007 31.0625 131.823 31.0625C131.823 26.0215 132.608 21.1674 130 18.5057C127.493 15.9476 122.385 14.9661 118.854 17.258L118.853 17.2566Z" fill="#CCCCCC"/>
<path fill-rule="evenodd" clip-rule="evenodd" d="M23.1084 16.1061C24.4493 21.1305 28.682 17.5944 23.1084 16.1061V16.1061ZM31.7364 24.7341C31.5105 22.6696 32.084 23.8402 29.7289 21.5657L28.5756 20.4125C27.8638 19.6777 28.5325 20.2547 27.713 19.4907C26.411 18.2757 24.2269 17.9823 26.3338 20.2665C27.0749 21.0694 26.4214 20.3166 27.3362 21.0673C27.4328 21.1458 27.5719 21.2411 27.6678 21.321L31.7364 24.7348V24.7341ZM48.9923 41.99C48.7414 38.9808 43.238 34.6189 41.0831 32.6433L36.6232 28.4753C36.1532 28.004 36.09 27.9387 35.7647 27.6085C35.682 27.5244 35.5603 27.4048 35.4776 27.32L34.9138 26.734C33.2115 25.0671 33.2719 25.1435 31.7371 24.7341L42.9516 37.1026C43.4876 37.6392 43.548 37.692 44.1062 38.2495L45.8246 39.9825C45.9066 40.0673 46.0269 40.1882 46.1082 40.2737L48.9937 41.99H48.9923ZM23.1084 15.5313C23.1084 14.8542 21.8704 14.2349 22.218 15.5313C22.5669 16.8312 20.7547 15.5466 22.4835 15.7016C23.2085 15.7662 23.1084 16.7005 23.1084 15.5313ZM21.9573 14.3801C21.9573 13.7045 20.72 13.0844 21.0675 14.3801C21.4165 15.6793 19.6043 14.3954 21.3331 14.5504C22.0574 14.6158 21.9573 15.5494 21.9573 14.3801ZM20.8076 13.2297C20.8076 12.554 19.5695 11.9333 19.9178 13.2297C20.2654 14.5296 18.4539 13.245 20.1826 13.4C20.9077 13.4654 20.8076 14.3989 20.8076 13.2297ZM19.6571 12.0793C19.6571 11.4029 18.4191 10.7828 18.7667 12.0793C19.1156 13.3792 17.3034 12.0946 19.0322 12.2496C19.7572 12.3142 19.6571 13.2485 19.6571 12.0793ZM18.506 10.9281C18.506 10.2525 17.2687 9.6324 17.6162 10.9281C17.9645 12.228 16.1523 10.9434 17.8818 11.0984C18.6061 11.1638 18.506 12.098 18.506 10.9281Z" fill="#CCCCCC"/>
<path fill-rule="evenodd" clip-rule="evenodd" d="M24.8338 23.5837C24.2505 23.7394 22.6121 23.6636 23.6826 24.7341C24.2735 24.9955 23.5241 25.8004 24.3715 24.764C25.0291 23.959 24.7719 25.8178 24.8338 23.5837ZM24.8338 25.8846C25.1375 26.0187 25.1897 27.7086 25.9842 24.7334C24.8331 25.0414 25.7527 23.9973 24.8046 25.1957C23.1161 27.3304 26.0475 23.5746 24.8338 25.8846ZM25.9842 27.6099H27.1339C26.7322 25.9277 27.2083 26.7813 25.9842 25.8846V27.6099ZM27.1339 28.1847C27.1339 28.8611 28.372 29.4812 28.0244 28.1847C27.6754 26.8848 29.4876 28.1694 27.7589 28.0144C27.0345 27.9498 27.1339 27.0155 27.1339 28.1847ZM28.2851 29.3359C28.2851 30.0115 29.5231 30.6316 29.1748 29.3359C28.8273 28.036 30.6381 29.3206 28.9093 29.1656C28.185 29.1002 28.2851 28.1667 28.2851 29.3359ZM29.4348 30.4863C29.4348 31.162 30.6728 31.7827 30.3253 30.4863C29.9763 29.1864 31.7885 30.471 30.0597 30.316C29.3347 30.2507 29.4348 29.3171 29.4348 30.4863ZM30.5853 31.6361C30.5853 32.3131 31.8233 32.9325 31.4757 31.6361C31.1268 30.3362 32.939 31.6208 31.2102 31.4658C30.4859 31.4011 30.5853 30.4669 30.5853 31.6361ZM19.6571 20.1324L23.1084 24.1592C23.3837 23.5621 23.7521 23.6866 23.3566 22.7196C23.3246 22.6411 23.2176 22.4882 23.1675 22.4096L19.6564 20.1331L19.6571 20.1324ZM0.675204 0.000695809C0.372128 0.631874 -0.937497 0.679139 1.19655 2.89869L2.97539 4.60176C6.59006 8.21296 7.35193 8.39161 11.3322 12.9259L17.9103 19.0021C17.9985 19.0813 18.1049 19.2183 18.1953 19.2933L19.1066 18.382C19.0412 18.2868 18.9147 18.1637 18.8403 18.0727L0.675204 0V0.000695809Z" fill="#CCCCCC"/>
<path fill-rule="evenodd" clip-rule="evenodd" d="M10.4536 18.407L14.4805 22.4339C14.8781 21.574 15.097 21.9842 14.721 21.0033C14.6681 20.8643 12.6154 17.4074 10.4536 18.4077V18.407ZM17.9311 24.1592C17.238 23.2132 17.6801 23.4752 16.5394 22.6181C15.3278 21.7061 16.5353 21.4823 14.4798 22.4332C16.8251 25.635 16.8237 24.6708 17.9311 24.1592ZM17.3555 25.8845H19.0808V24.7334H17.3555V25.8845ZM19.0808 27.6099H20.2313V25.8845H19.0808V27.6099ZM20.2313 28.7603H21.3824V27.035C19.1782 28.567 21.1398 27.0322 20.2313 28.7603ZM21.3824 29.9107H23.1084V28.7603H21.3824V29.9107ZM23.1084 30.4863C23.1084 31.162 24.3464 31.7827 23.9982 30.4863C23.6499 29.1864 25.4614 30.471 23.7326 30.316C23.0083 30.2506 23.1084 29.3171 23.1084 30.4863ZM0.675178 6.90332C0.536152 7.1918 -1.11895 7.85982 1.51767 10.0731C2.02512 10.4992 2.59095 10.7863 3.20128 11.2792C4.64993 12.4491 3.43484 11.3897 4.60475 12.7521L8.99171 16.9938C9.88774 17.9573 9.23987 17.518 10.4536 18.4077C10.854 17.5423 11.0653 17.9608 10.6906 16.9813C10.642 16.8541 10.3486 16.4885 10.2575 16.3592L7.93234 14.027C5.5105 11.8853 9.57423 15.7245 7.32062 13.4883C5.32281 11.5051 3.86652 9.04223 0.675178 6.9047V6.90332Z" fill="#CCCCCC"/>
<path fill-rule="evenodd" clip-rule="evenodd" d="M34.6122 14.3808C34.6122 15.0572 35.8502 15.6772 35.5026 14.3808C35.1544 13.0809 36.9659 14.3648 35.2371 14.2098C34.5121 14.1452 34.6122 13.2109 34.6122 14.3808ZM35.7619 16.6817C37.4441 16.2785 36.5912 16.7554 37.4879 15.5313C36.7129 15.0961 36.8526 15.2164 35.7619 14.9557V16.6817ZM36.913 17.8315H38.6384V16.6817H36.913V17.8315ZM48.4168 28.7603C48.7956 27.9713 49.3482 27.7329 48.4849 26.4469L45.5695 23.5538C45.4861 23.4696 45.3936 23.3223 45.3026 23.2451C45.1747 23.1367 44.7882 22.8336 44.6394 22.7571C43.6155 22.2365 44.369 22.5562 43.2387 22.4325V20.7072C40.053 20.3582 41.3661 18.5599 38.6377 17.8308C38.8796 20.0447 40.8927 21.3057 43.4779 23.9201L48.4161 28.7603H48.4168Z" fill="#CCCCCC"/>
<path fill-rule="evenodd" clip-rule="evenodd" d="M34.6121 18.9826H32.8861C33.2893 20.6642 32.8125 19.8105 34.0366 20.708C34.4314 20.0066 34.6121 20.0928 34.6121 18.9826ZM36.913 23.0081C35.7647 18.7095 34.5392 20.4758 34.0366 20.708C34.503 21.864 35.1696 22.3777 36.913 23.0081ZM43.6217 29.9108L43.815 29.7307C43.4737 27.9637 44.2314 28.6012 42.6638 28.1855C42.2092 26.9294 42.554 27.6759 41.7692 26.7799C41.6427 26.636 39.6727 23.3112 36.9123 23.0088C37.1737 25.398 36.7184 23.8333 37.7284 25.0685L38.9157 26.1821C39.0026 26.262 39.1319 26.374 39.2195 26.4539C41.6211 28.6457 41.2819 29.2845 43.621 29.9115L43.6217 29.9108ZM32.8861 18.4071C32.8861 17.7314 31.6481 17.1107 31.9957 18.4071C32.3439 19.707 30.5331 18.4224 32.2612 18.5774C32.9862 18.6427 32.8861 19.5763 32.8861 18.4071ZM30.5853 16.1062C30.1501 16.8813 30.2711 16.7422 30.0104 17.8315H31.7357C31.3582 16.2557 31.9686 16.9362 30.5846 16.1062H30.5853ZM30.0104 16.1062C30.2711 15.516 31.076 16.2647 30.0396 15.418C29.2485 14.7715 29.9916 15.2581 28.8592 14.9558C29.1672 16.1069 28.1231 15.1872 29.3215 16.1361C30.3343 16.9369 29.2381 16.4482 30.0104 16.1062ZM28.8592 14.3809C28.8592 13.7052 27.6219 13.0852 27.9695 14.3809C28.3177 15.6801 26.5062 14.3962 28.235 14.5512C28.9593 14.6165 28.8592 15.5501 28.8592 14.3809Z" fill="#CCCCCC"/>
<path fill-rule="evenodd" clip-rule="evenodd" d="M6.42668 19.5575C5.74824 17.737 7.67583 18.7324 4.70068 18.4071C4.44487 16.0631 5.2116 17.5653 3.92839 16.3036C2.66603 15.0628 4.22312 15.7934 1.82492 15.5313V13.8053H0.0996094C0.327612 16.5434 0.954622 15.9797 2.64865 17.584C3.67397 18.5544 5.11358 21.052 6.42668 19.5568V19.5575ZM7.00225 21.8584C8.00602 19.6896 8.07484 20.7642 6.42668 19.5575C5.59461 21.3586 5.17823 20.7649 7.00225 21.8584ZM7.57782 23.0081C9.25934 22.6063 8.40572 23.0825 9.30313 21.8584C8.52806 21.4225 8.66709 21.5435 7.57782 21.2828V23.0081ZM9.87801 24.7341C10.3132 23.9591 10.1922 24.0988 10.4536 23.0081H8.72826C9.10571 24.5854 8.49539 23.9041 9.8787 24.7341H9.87801ZM10.4536 25.8853C12.1351 25.4821 11.2829 25.9596 12.1796 24.7341C11.4045 24.299 11.5435 24.4199 10.4536 24.1593V25.8846V25.8853Z" fill="#CCCCCC"/>
<path fill-rule="evenodd" clip-rule="evenodd" d="M116.866 21.6526C116.704 21.8799 115.84 21.5983 115.609 25.2791C115.505 26.9369 115.62 28.9987 115.666 30.6837L112.246 30.7261L112.267 17.073L115.14 17.0612L115.792 19.8285L118.852 17.2559L116.41 18.1526C116.276 17.4595 116.303 17.3907 116.291 16.6803H111.69V31.0605H116.291C116.291 27.9351 115.912 24.1821 116.866 21.6512V21.6526Z" fill="#CCCCCC"/>
<path fill-rule="evenodd" clip-rule="evenodd" d="M47.8419 19.5574C46.5468 17.7904 48.2124 18.6294 45.5417 18.407C45.9024 19.7597 46.6511 20.9122 47.8419 19.5574ZM47.8419 21.8583C49.6096 20.5633 48.7705 22.2288 48.993 19.5574C47.1043 20.0621 46.6706 20.0558 47.8419 21.8583ZM46.1165 16.6817H44.3905V18.407C45.7043 18.0566 46.0727 18.2756 46.1165 16.6817ZM44.3905 14.9557H42.6652V16.6817H44.3905V14.9557ZM41.5148 13.2303C41.0796 14.0054 41.2006 13.8664 40.9392 14.9557H42.6652C42.2878 13.3784 42.8988 14.0596 41.5148 13.2303Z" fill="#CCCCCC"/>
<path fill-rule="evenodd" clip-rule="evenodd" d="M5.27627 24.7341C3.10747 23.731 4.18214 23.6622 2.97539 25.3097C3.8881 25.7316 5.00656 26.3127 5.27627 24.7341ZM5.85184 27.6106C6.85491 25.4418 6.92373 26.5171 5.27627 25.3097C4.44351 27.1108 4.02782 26.5171 5.85184 27.6106ZM3.55096 22.4339H1.82495V24.1599H3.55096V22.4339ZM1.82495 20.7086H0.0996368C0.322078 23.38 -0.51694 21.7138 1.25008 23.0088C1.9042 21.6908 1.59556 22.4986 1.82565 20.7086H1.82495Z" fill="#CCCCCC"/>
<path fill-rule="evenodd" clip-rule="evenodd" d="M101.075 30.4863C102.574 29.8822 102.399 30.1331 103.437 29.1502L103.646 31.0611L108.238 31.0618C108.238 29.5298 108.221 27.9873 108.244 26.4573C108.334 20.637 108.315 22.835 107.251 21.859L107.682 30.7344C102.559 30.6948 105.354 31.2808 103.637 28.5274L101.076 30.4877L101.075 30.4863Z" fill="#CCCCCC"/>
<path fill-rule="evenodd" clip-rule="evenodd" d="M1.25009 29.9108C1.77005 28.8618 1.69358 29.1913 1.82565 27.6106H0.100341C0.314442 30.1798 -0.528752 28.6748 1.25078 29.9108H1.25009ZM1.82565 31.0619H3.55166C3.08871 29.329 3.55931 29.7989 1.82565 29.3366V31.0619ZM3.55166 32.7879H5.27698C4.81472 31.055 5.28462 31.5249 3.55166 31.0619V32.7879Z" fill="#CCCCCC"/>
<path fill-rule="evenodd" clip-rule="evenodd" d="M46.4599 32.7879C46.528 34.2734 45.6202 32.9506 46.8923 34.2978C48.1345 35.6116 46.6163 34.8288 48.9923 35.0881C48.8595 33.8779 49.3218 33.9738 48.2005 32.9888L46.6907 32.5467C45.8461 31.4811 45.0342 30.5879 43.8789 29.9615C44.4739 31.2489 45.2893 31.8648 46.4592 32.7879H46.4599Z" fill="#CCCCCC"/>
<path fill-rule="evenodd" clip-rule="evenodd" d="M46.6914 32.546C46.2125 30.7838 47.3149 32.3694 46.2215 31.0195C45.0196 29.5354 46.0025 30.4335 44.6366 30.1172C44.3377 28.5685 45.272 29.7064 43.8157 29.7307L43.6224 29.9108C42.9356 31.8105 43.1845 30.5677 43.9582 30.7546C44.5386 32.2679 43.7559 32.1692 45.8531 32.6746C45.9879 32.7073 46.2597 32.7413 46.4606 32.7872C45.2907 31.8641 44.4753 31.2482 43.8803 29.9608C45.0356 30.5871 45.8482 31.4797 46.6921 32.546H46.6914Z" fill="#CCCCCC"/>
<path fill-rule="evenodd" clip-rule="evenodd" d="M6.42672 28.761H8.15203C7.75025 27.0794 8.22641 27.9324 7.0016 27.0356C6.60746 27.737 6.42603 27.6508 6.42603 28.761H6.42672ZM8.15203 30.487C9.83425 30.0838 8.98133 30.5606 9.87804 29.3365C9.10367 28.9014 9.24269 29.0216 8.15203 28.761V30.487Z" fill="#CCCCCC"/>
<path fill-rule="evenodd" clip-rule="evenodd" d="M0.0996094 36.2385H1.82562V34.5132H0.0996094V36.2385Z" fill="#CCCCCC"/>
<path fill-rule="evenodd" clip-rule="evenodd" d="M47.267 8.05376H48.9923V6.32776H47.267V8.05376Z" fill="#CCCCCC"/>
<path fill-rule="evenodd" clip-rule="evenodd" d="M46.1158 13.2304C47.8835 11.9354 47.0445 13.601 47.267 10.9296C44.9883 11.5385 45.176 11.3334 46.1158 13.2304Z" fill="#CCCCCC"/>
<path fill-rule="evenodd" clip-rule="evenodd" d="M47.8418 14.9558C49.6096 13.6608 48.7705 15.3263 48.993 12.6549C46.7143 13.2638 46.902 13.0588 47.8418 14.9558Z" fill="#CCCCCC"/>
<path fill-rule="evenodd" clip-rule="evenodd" d="M1.82565 37.389C2.60072 37.8241 2.4617 37.7039 3.55166 37.9645V36.2385C2.54372 36.4797 2.00986 36.3108 1.82565 37.389Z" fill="#CCCCCC"/>
<path fill-rule="evenodd" clip-rule="evenodd" d="M13.3293 28.761H15.0554C14.6529 27.0794 15.129 27.9324 13.9049 27.0356C13.5108 27.737 13.3293 27.6508 13.3293 28.761Z" fill="#CCCCCC"/>
<path fill-rule="evenodd" clip-rule="evenodd" d="M44.9662 11.5044C45.4013 10.7293 45.2803 10.8683 45.5417 9.77905H43.8164C44.1939 11.3563 43.5828 10.6751 44.9668 11.5044H44.9662Z" fill="#CCCCCC"/>
<path fill-rule="evenodd" clip-rule="evenodd" d="M46.6915 6.32773C47.1266 5.55266 47.0063 5.69169 47.267 4.60242H45.541C45.9185 6.17967 45.3074 5.49844 46.6915 6.32773Z" fill="#CCCCCC"/>
<path fill-rule="evenodd" clip-rule="evenodd" d="M15.0547 8.05373C15.1763 8.70993 16.3198 9.31123 15.8291 8.16982C15.6219 7.6881 14.7787 6.5599 15.0547 8.05373ZM16.2058 9.20348C16.3268 9.85968 17.4703 10.4617 16.9795 9.32026C16.7723 8.83784 15.9292 7.71034 16.2058 9.20348Z" fill="#CCCCCC"/>
<path fill-rule="evenodd" clip-rule="evenodd" d="M13.3293 25.8853C12.352 26.1459 11.0924 26.2203 12.0433 27.1712C12.995 28.1229 13.0687 26.8633 13.3293 25.8853Z" fill="#CCCCCC"/>
<path fill-rule="evenodd" clip-rule="evenodd" d="M5.27628 34.5132C6.42811 34.2053 5.50845 35.2494 6.45661 34.051C7.2421 33.0576 5.34718 31.967 5.27628 34.5132Z" fill="#CCCCCC"/>
<path fill-rule="evenodd" clip-rule="evenodd" d="M0.0996094 41.4158H1.25005V39.6898C0.29842 40.3509 0.144098 39.8115 0.0996094 41.4158Z" fill="#CCCCCC"/>
<path fill-rule="evenodd" clip-rule="evenodd" d="M39.7888 13.8053C41.0595 12.9218 40.5033 13.7107 40.9385 12.08H39.7888V13.8053Z" fill="#CCCCCC"/>
<path fill-rule="evenodd" clip-rule="evenodd" d="M26.5591 12.6549C26.2963 12.9177 25.2119 12.6021 26.5472 13.3619C27.1221 13.6886 27.9611 13.4647 27.2653 12.6431C26.3651 11.5809 26.9511 12.2636 26.5591 12.6556V12.6549Z" fill="#CCCCCC"/>
<path fill-rule="evenodd" clip-rule="evenodd" d="M9.87802 3.45204C9.90165 3.64251 10.5127 3.58064 10.5641 3.56117C10.7073 3.50765 11.563 4.89235 10.8137 3.40686L10.5141 3.27061C10.0685 3.26158 9.73135 2.26754 9.87802 3.45204ZM11.0292 4.60248C11.0292 5.27814 12.2672 5.89889 11.9189 4.60248C11.5714 3.30258 13.3822 4.58719 11.6534 4.43217C10.9291 4.36752 11.0292 3.43327 11.0292 4.60248Z" fill="#CCCCCC"/>
<path fill-rule="evenodd" clip-rule="evenodd" d="M34.6121 35.0881C34.7338 35.7443 35.8766 36.3455 35.3858 35.2048C35.1794 34.7224 34.3362 33.5949 34.6121 35.0881Z" fill="#CCCCCC"/>
<path fill-rule="evenodd" clip-rule="evenodd" d="M38.0635 39.1142C38.6543 39.7051 40.1447 38.2863 38.7308 38.8035C38.7169 38.8091 37.0986 38.1487 38.0635 39.1142Z" fill="#CCCCCC"/>
<path fill-rule="evenodd" clip-rule="evenodd" d="M35.7619 36.8134C36.3528 37.4042 37.8431 35.9855 36.4292 36.5034C36.4153 36.5082 34.7971 35.8478 35.7619 36.8134Z" fill="#CCCCCC"/>
<path fill-rule="evenodd" clip-rule="evenodd" d="M42.6645 8.62868C42.6645 9.30435 43.9025 9.9244 43.555 8.62868C43.2067 7.32879 45.0189 8.61339 43.2894 8.45838C42.5651 8.39304 42.6645 7.45947 42.6645 8.62868Z" fill="#CCCCCC"/>
<path fill-rule="evenodd" clip-rule="evenodd" d="M47.8419 1.7267C47.8419 2.40237 49.0799 3.02243 48.7323 1.7267C48.3841 0.42681 50.1963 1.71141 48.4668 1.5564C47.7425 1.49106 47.8419 0.557495 47.8419 1.7267Z" fill="#CCCCCC"/>
<path fill-rule="evenodd" clip-rule="evenodd" d="M24.8338 11.5044C24.8338 12.1801 26.0718 12.8008 25.7235 11.5044C25.376 10.2045 27.1868 11.4891 25.458 11.3341C24.7337 11.2695 24.8338 10.3352 24.8338 11.5044Z" fill="#CCCCCC"/>
<path fill-rule="evenodd" clip-rule="evenodd" d="M36.913 37.9646C36.6176 39.5634 38.2845 37.6879 37.4823 37.738C36.4062 37.8054 37.132 36.7752 36.913 37.9646Z" fill="#CCCCCC"/>
<path fill-rule="evenodd" clip-rule="evenodd" d="M33.4617 33.9376C33.4617 35.3668 34.3814 34.0843 33.8183 33.9376C33.8114 33.9355 33.4617 32.3061 33.4617 33.9376Z" fill="#CCCCCC"/>
<path fill-rule="evenodd" clip-rule="evenodd" d="M32.3112 32.7879C31.5883 33.5108 32.9779 33.5518 32.5664 32.8018C32.565 32.799 32.4725 32.7774 32.4697 32.7753C32.4649 32.7726 32.3488 32.7496 32.3112 32.7879Z" fill="#CCCCCC"/>
<path fill-rule="evenodd" clip-rule="evenodd" d="M13.9049 6.9033C13.182 7.62623 14.5716 7.66794 14.16 6.9172C14.158 6.91441 14.0662 6.89287 14.0634 6.89078C14.0586 6.888 13.9418 6.86576 13.9042 6.9033H13.9049Z" fill="#CCCCCC"/>
<path fill-rule="evenodd" clip-rule="evenodd" d="M12.7545 5.75223C12.0309 6.47586 13.4211 6.51618 13.0096 5.76683C13.0082 5.76335 12.9164 5.7425 12.913 5.74041C12.9088 5.73694 12.792 5.7147 12.7545 5.75223Z" fill="#CCCCCC"/>
<path fill-rule="evenodd" clip-rule="evenodd" d="M39.7888 40.2647L39.9605 40.0938C39.9486 40.1042 39.7311 40.2077 39.7888 40.2647Z" fill="#CCCCCC"/>
<path fill-rule="evenodd" clip-rule="evenodd" d="M40.9393 41.9907L41.1116 41.8197C41.0998 41.8308 40.8822 41.9337 40.9393 41.9907Z" fill="#CCCCCC"/>
<path fill-rule="evenodd" clip-rule="evenodd" d="M9.30317 2.30088L9.47417 2.12988C9.46305 2.141 9.24617 2.24388 9.30317 2.30088Z" fill="#CCCCCC"/>
</g>
</svg>
