<svg width="27" height="27" viewBox="0 0 27 27" fill="none" xmlns="http://www.w3.org/2000/svg">
<path d="M12.0493 0.0751585C7.29209 0.571444 3.04147 3.70237 1.10913 8.13303C-0.136123 10.9934 -0.343365 14.287 0.540843 17.319C1.63302 21.0996 4.45822 24.2937 8.11384 25.8912C10.9752 27.1361 14.2697 27.3433 17.3029 26.4593C21.8427 25.1509 25.4173 21.4246 26.5907 16.7953C28.4226 9.54068 23.9278 2.12292 16.6526 0.390977C15.0546 0.0119949 13.6473 -0.0874427 12.0493 0.0751585ZM12.2298 8.45787C13.3848 9.99185 14.36 11.2551 14.3961 11.2551C14.4322 11.2551 15.633 9.99185 17.0498 8.45787L19.6403 5.66063H21.1116L20.7957 5.99485C20.6152 6.18362 19.4417 7.4561 18.1871 8.81881C16.9325 10.1813 15.7049 11.5074 15.4608 11.7514L15.0279 12.2116L18.4128 16.7143C20.2722 19.1957 21.7976 21.2527 21.7976 21.2895C21.7976 21.3346 20.6877 21.3613 19.3421 21.3613L16.8783 21.3523L14.5856 18.2843C13.0061 16.1638 12.2659 15.2519 12.1937 15.3066C12.1395 15.3517 10.8574 16.7327 9.3414 18.3746L6.58841 21.3613H5.89303C5.50526 21.3613 5.18934 21.3429 5.18934 21.3162C5.18934 21.2895 6.62451 19.7187 8.37524 17.8332C10.1178 15.9473 11.562 14.3682 11.5795 14.3415C11.5889 14.3047 10.1538 12.3469 8.39365 9.99185C6.63354 7.64577 5.18934 5.70574 5.18934 5.68734C5.18934 5.66983 6.29921 5.66063 7.66253 5.66063H10.1354L12.2298 8.45787Z" fill="white"/>
<path d="M7.37467 6.99639C7.41079 7.05824 9.69743 10.0449 12.4388 13.6145L17.4306 20.1182L18.5466 20.1272C19.2366 20.1272 19.6543 20.0919 19.6358 20.0389C19.6274 19.9947 17.3491 17.0083 14.5902 13.4116L9.56128 6.87268H8.43621C7.50173 6.87268 7.31077 6.89071 7.37467 6.99639Z" fill="white"/>
</svg>
